<?xml version="1.0" encoding="UTF-8" standalone="no"?>
<!DOCTYPE svg PUBLIC "-//W3C//DTD SVG 1.1//EN"
 "http://www.w3.org/Graphics/SVG/1.1/DTD/svg11.dtd">
<!-- Generated by graphviz version 2.38.0 (20140413.2041)
 -->
<!-- Title: G Pages: 1 -->
<svg width="308pt" height="726pt"
 viewBox="0.00 0.00 308.00 726.00" xmlns="http://www.w3.org/2000/svg" xmlns:xlink="http://www.w3.org/1999/xlink">
<g id="graph0" class="graph" transform="scale(1 1) rotate(0) translate(4 722)">
<title>G</title>
<polygon fill="white" stroke="none" points="-4,4 -4,-722 304,-722 304,4 -4,4"/>
<g id="clust1" class="cluster"><title>cluster_Global</title>
<path fill="none" stroke="gray" d="M20,-44C20,-44 280,-44 280,-44 286,-44 292,-50 292,-56 292,-56 292,-698 292,-698 292,-704 286,-710 280,-710 280,-710 20,-710 20,-710 14,-710 8,-704 8,-698 8,-698 8,-56 8,-56 8,-50 14,-44 20,-44"/>
<text text-anchor="middle" x="150" y="-697.2" font-family="Times New Roman,serif" font-size="11.00" fill="gray">Global</text>
</g>
<!-- \\ConexaoMySql -->
<g id="node1" class="node"><title>\\ConexaoMySql</title>
<polygon fill="none" stroke="black" points="270.5,-682 172.5,-682 172.5,-646 270.5,-646 270.5,-682"/>
<text text-anchor="middle" x="221.5" y="-661.2" font-family="Courier,monospace" font-size="11.00">ConexaoMySql</text>
</g>
<!-- \\IConexao -->
<g id="node13" class="node"><title>\\IConexao</title>
<polygon fill="none" stroke="black" points="87,-601 16,-601 16,-565 87,-565 87,-601"/>
<text text-anchor="middle" x="51.5" y="-580.2" font-family="Courier,monospace" font-size="11.00">IConexao</text>
</g>
<!-- \\ConexaoMySql&#45;&gt;\\IConexao -->
<g id="edge1" class="edge"><title>\\ConexaoMySql&#45;&gt;\\IConexao</title>
<path fill="none" stroke="black" stroke-dasharray="1,5" d="M178.345,-645.864C171.84,-642.958 165.22,-639.94 159,-637 138.222,-627.18 115.468,-615.739 96.3454,-605.922"/>
<polygon fill="none" stroke="black" points="97.7668,-602.717 87.2744,-601.247 94.5602,-608.939 97.7668,-602.717"/>
</g>
<!-- \\ConexaoMySqli -->
<g id="node2" class="node"><title>\\ConexaoMySqli</title>
<polygon fill="none" stroke="black" points="273.5,-628 169.5,-628 169.5,-592 273.5,-592 273.5,-628"/>
<text text-anchor="middle" x="221.5" y="-607.2" font-family="Courier,monospace" font-size="11.00">ConexaoMySqli</text>
</g>
<!-- \\ConexaoMySqli&#45;&gt;\\IConexao -->
<g id="edge2" class="edge"><title>\\ConexaoMySqli&#45;&gt;\\IConexao</title>
<path fill="none" stroke="black" stroke-dasharray="1,5" d="M169.182,-601.752C146.19,-598.057 119.328,-593.74 97.1779,-590.18"/>
<polygon fill="none" stroke="black" points="97.4711,-586.683 87.0424,-588.551 96.3603,-593.594 97.4711,-586.683"/>
</g>
<!-- \\ConexaoPDO -->
<g id="node3" class="node"><title>\\ConexaoPDO</title>
<polygon fill="none" stroke="black" points="263.5,-412 179.5,-412 179.5,-376 263.5,-376 263.5,-412"/>
<text text-anchor="middle" x="221.5" y="-391.2" font-family="Courier,monospace" font-size="11.00">ConexaoPDO</text>
</g>
<!-- \\PDO -->
<g id="node14" class="node"><title>\\PDO</title>
<ellipse fill="none" stroke="black" cx="51.5" cy="-18" rx="31.6951" ry="18"/>
<text text-anchor="middle" x="51.5" y="-14.3" font-family="Times New Roman,serif" font-size="14.00" fill="gray">\PDO</text>
</g>
<!-- \\ConexaoPDO&#45;&gt;\\PDO -->
<g id="edge3" class="edge"><title>\\ConexaoPDO&#45;&gt;\\PDO</title>
<path fill="none" stroke="black" d="M179.426,-382.424C171.718,-378.605 164.398,-373.582 159,-367 64.6284,-251.936 172.242,-161.982 87,-40 86.1099,-38.7262 85.12,-37.5095 84.0539,-36.3494"/>
<polygon fill="none" stroke="black" points="86.0106,-33.4138 76.1613,-29.5098 81.4263,-38.7038 86.0106,-33.4138"/>
</g>
<!-- \\Conexao -->
<g id="node4" class="node"><title>\\Conexao</title>
<polygon fill="none" stroke="black" points="253.5,-520 189.5,-520 189.5,-484 253.5,-484 253.5,-520"/>
<text text-anchor="middle" x="221.5" y="-499.2" font-family="Courier,monospace" font-size="11.00">Conexao</text>
</g>
<!-- \\ConexaoPostgre -->
<g id="node5" class="node"><title>\\ConexaoPostgre</title>
<polygon fill="none" stroke="black" points="277,-574 166,-574 166,-538 277,-538 277,-574"/>
<text text-anchor="middle" x="221.5" y="-553.2" font-family="Courier,monospace" font-size="11.00">ConexaoPostgre</text>
</g>
<!-- \\ConexaoPostgre&#45;&gt;\\IConexao -->
<g id="edge4" class="edge"><title>\\ConexaoPostgre&#45;&gt;\\IConexao</title>
<path fill="none" stroke="black" stroke-dasharray="1,5" d="M165.955,-564.766C143.724,-568.339 118.342,-572.418 97.2297,-575.811"/>
<polygon fill="none" stroke="black" points="96.5591,-572.374 87.2412,-577.417 97.6699,-579.285 96.5591,-572.374"/>
</g>
<!-- \\ConexaoSqlServer -->
<g id="node6" class="node"><title>\\ConexaoSqlServer</title>
<polygon fill="none" stroke="black" points="284,-466 159,-466 159,-430 284,-430 284,-466"/>
<text text-anchor="middle" x="221.5" y="-445.2" font-family="Courier,monospace" font-size="11.00">ConexaoSqlServer</text>
</g>
<!-- \\ConexaoSqlServer&#45;&gt;\\IConexao -->
<g id="edge5" class="edge"><title>\\ConexaoSqlServer&#45;&gt;\\IConexao</title>
<path fill="none" stroke="black" stroke-dasharray="1,5" d="M174.127,-466.055C168.864,-468.77 163.706,-471.759 159,-475 125.243,-498.246 93.1648,-533.148 73.2033,-556.94"/>
<polygon fill="none" stroke="black" points="70.3355,-554.916 66.665,-564.855 75.7323,-559.374 70.3355,-554.916"/>
</g>
<!-- \\ControleWeb -->
<g id="node7" class="node"><title>\\ControleWeb</title>
<polygon fill="none" stroke="black" points="267,-358 176,-358 176,-322 267,-322 267,-358"/>
<text text-anchor="middle" x="221.5" y="-337.2" font-family="Courier,monospace" font-size="11.00">ControleWeb</text>
</g>
<!-- \\DiretorioXML -->
<g id="node8" class="node"><title>\\DiretorioXML</title>
<polygon fill="none" stroke="black" points="270.5,-304 172.5,-304 172.5,-268 270.5,-268 270.5,-304"/>
<text text-anchor="middle" x="221.5" y="-283.2" font-family="Courier,monospace" font-size="11.00">DiretorioXML</text>
</g>
<!-- \\Form -->
<g id="node9" class="node"><title>\\Form</title>
<polygon fill="none" stroke="black" points="248.5,-250 194.5,-250 194.5,-214 248.5,-214 248.5,-250"/>
<text text-anchor="middle" x="221.5" y="-229.2" font-family="Courier,monospace" font-size="11.00">Form</text>
</g>
<!-- \\Geracao -->
<g id="node10" class="node"><title>\\Geracao</title>
<polygon fill="none" stroke="black" points="253.5,-196 189.5,-196 189.5,-160 253.5,-160 253.5,-196"/>
<text text-anchor="middle" x="221.5" y="-175.2" font-family="Courier,monospace" font-size="11.00">Geracao</text>
</g>
<!-- \\Util -->
<g id="node11" class="node"><title>\\Util</title>
<polygon fill="none" stroke="black" points="248.5,-142 194.5,-142 194.5,-106 248.5,-106 248.5,-142"/>
<text text-anchor="middle" x="221.5" y="-121.2" font-family="Courier,monospace" font-size="11.00">Util</text>
</g>
<!-- \\Seguranca -->
<g id="node12" class="node"><title>\\Seguranca</title>
<polygon fill="none" stroke="black" points="260,-88 183,-88 183,-52 260,-52 260,-88"/>
<text text-anchor="middle" x="221.5" y="-67.2" font-family="Courier,monospace" font-size="11.00">Seguranca</text>
</g>
</g>
</svg>
