<?xml version="1.0" encoding="UTF-8" standalone="no"?>
<!DOCTYPE svg PUBLIC "-//W3C//DTD SVG 1.1//EN"
 "http://www.w3.org/Graphics/SVG/1.1/DTD/svg11.dtd">
<!-- Generated by graphviz version 2.38.0 (20140413.2041)
 -->
<!-- Title: G Pages: 1 -->
<svg width="308pt" height="672pt"
 viewBox="0.00 0.00 308.00 672.00" xmlns="http://www.w3.org/2000/svg" xmlns:xlink="http://www.w3.org/1999/xlink">
<g id="graph0" class="graph" transform="scale(1 1) rotate(0) translate(4 668)">
<title>G</title>
<polygon fill="white" stroke="none" points="-4,4 -4,-668 304,-668 304,4 -4,4"/>
<g id="clust1" class="cluster"><title>cluster_Global</title>
<path fill="none" stroke="gray" d="M20,-44C20,-44 280,-44 280,-44 286,-44 292,-50 292,-56 292,-56 292,-644 292,-644 292,-650 286,-656 280,-656 280,-656 20,-656 20,-656 14,-656 8,-650 8,-644 8,-644 8,-56 8,-56 8,-50 14,-44 20,-44"/>
<text text-anchor="middle" x="150" y="-643.2" font-family="Times New Roman,serif" font-size="11.00" fill="gray">Global</text>
</g>
<!-- \\Seguranca -->
<g id="node1" class="node"><title>\\Seguranca</title>
<polygon fill="none" stroke="black" points="260,-628 183,-628 183,-592 260,-592 260,-628"/>
<text text-anchor="middle" x="221.5" y="-607.2" font-family="Courier,monospace" font-size="11.00">Seguranca</text>
</g>
<!-- \\ConexaoPostgre -->
<g id="node2" class="node"><title>\\ConexaoPostgre</title>
<polygon fill="none" stroke="black" points="277,-574 166,-574 166,-538 277,-538 277,-574"/>
<text text-anchor="middle" x="221.5" y="-553.2" font-family="Courier,monospace" font-size="11.00">ConexaoPostgre</text>
</g>
<!-- \\ConexaoSqlServer -->
<g id="node3" class="node"><title>\\ConexaoSqlServer</title>
<polygon fill="none" stroke="black" points="284,-520 159,-520 159,-484 284,-484 284,-520"/>
<text text-anchor="middle" x="221.5" y="-499.2" font-family="Courier,monospace" font-size="11.00">ConexaoSqlServer</text>
</g>
<!-- \\IConexao -->
<g id="node12" class="node"><title>\\IConexao</title>
<polygon fill="none" stroke="black" points="87,-412 16,-412 16,-376 87,-376 87,-412"/>
<text text-anchor="middle" x="51.5" y="-391.2" font-family="Courier,monospace" font-size="11.00">IConexao</text>
</g>
<!-- \\ConexaoSqlServer&#45;&gt;\\IConexao -->
<g id="edge1" class="edge"><title>\\ConexaoSqlServer&#45;&gt;\\IConexao</title>
<path fill="none" stroke="black" stroke-dasharray="1,5" d="M175.864,-483.906C170.083,-481.129 164.326,-478.135 159,-475 130.899,-458.461 101.595,-435.707 80.8567,-418.526"/>
<polygon fill="none" stroke="black" points="82.9868,-415.744 73.0734,-412.006 78.4917,-421.11 82.9868,-415.744"/>
</g>
<!-- \\Form -->
<g id="node4" class="node"><title>\\Form</title>
<polygon fill="none" stroke="black" points="248.5,-466 194.5,-466 194.5,-430 248.5,-430 248.5,-466"/>
<text text-anchor="middle" x="221.5" y="-445.2" font-family="Courier,monospace" font-size="11.00">Form</text>
</g>
<!-- \\Conexao -->
<g id="node5" class="node"><title>\\Conexao</title>
<polygon fill="none" stroke="black" points="253.5,-412 189.5,-412 189.5,-376 253.5,-376 253.5,-412"/>
<text text-anchor="middle" x="221.5" y="-391.2" font-family="Courier,monospace" font-size="11.00">Conexao</text>
</g>
<!-- \\Util -->
<g id="node6" class="node"><title>\\Util</title>
<polygon fill="none" stroke="black" points="248.5,-358 194.5,-358 194.5,-322 248.5,-322 248.5,-358"/>
<text text-anchor="middle" x="221.5" y="-337.2" font-family="Courier,monospace" font-size="11.00">Util</text>
</g>
<!-- \\ConexaoMySql -->
<g id="node7" class="node"><title>\\ConexaoMySql</title>
<polygon fill="none" stroke="black" points="270.5,-304 172.5,-304 172.5,-268 270.5,-268 270.5,-304"/>
<text text-anchor="middle" x="221.5" y="-283.2" font-family="Courier,monospace" font-size="11.00">ConexaoMySql</text>
</g>
<!-- \\ConexaoMySql&#45;&gt;\\IConexao -->
<g id="edge2" class="edge"><title>\\ConexaoMySql&#45;&gt;\\IConexao</title>
<path fill="none" stroke="black" stroke-dasharray="1,5" d="M175.864,-304.094C170.083,-306.871 164.326,-309.865 159,-313 130.899,-329.539 101.595,-352.293 80.8567,-369.474"/>
<polygon fill="none" stroke="black" points="78.4917,-366.89 73.0734,-375.994 82.9868,-372.256 78.4917,-366.89"/>
</g>
<!-- \\ControleWeb -->
<g id="node8" class="node"><title>\\ControleWeb</title>
<polygon fill="none" stroke="black" points="267,-250 176,-250 176,-214 267,-214 267,-250"/>
<text text-anchor="middle" x="221.5" y="-229.2" font-family="Courier,monospace" font-size="11.00">ControleWeb</text>
</g>
<!-- \\Geracao -->
<g id="node9" class="node"><title>\\Geracao</title>
<polygon fill="none" stroke="black" points="253.5,-196 189.5,-196 189.5,-160 253.5,-160 253.5,-196"/>
<text text-anchor="middle" x="221.5" y="-175.2" font-family="Courier,monospace" font-size="11.00">Geracao</text>
</g>
<!-- \\ConexaoPDO -->
<g id="node10" class="node"><title>\\ConexaoPDO</title>
<polygon fill="none" stroke="black" points="263.5,-142 179.5,-142 179.5,-106 263.5,-106 263.5,-142"/>
<text text-anchor="middle" x="221.5" y="-121.2" font-family="Courier,monospace" font-size="11.00">ConexaoPDO</text>
</g>
<!-- \\PDO -->
<g id="node13" class="node"><title>\\PDO</title>
<ellipse fill="none" stroke="black" cx="51.5" cy="-18" rx="31.6951" ry="18"/>
<text text-anchor="middle" x="51.5" y="-14.3" font-family="Times New Roman,serif" font-size="14.00" fill="gray">\PDO</text>
</g>
<!-- \\ConexaoPDO&#45;&gt;\\PDO -->
<g id="edge3" class="edge"><title>\\ConexaoPDO&#45;&gt;\\PDO</title>
<path fill="none" stroke="black" d="M179.4,-107.712C172.436,-104.459 165.395,-100.848 159,-97 124.028,-75.9579 120.25,-63.6696 87,-40 85.5677,-38.9804 84.0898,-37.9523 82.5887,-36.9268"/>
<polygon fill="none" stroke="black" points="84.1593,-33.7689 73.8904,-31.1611 80.2918,-39.6035 84.1593,-33.7689"/>
</g>
<!-- \\DiretorioXML -->
<g id="node11" class="node"><title>\\DiretorioXML</title>
<polygon fill="none" stroke="black" points="270.5,-88 172.5,-88 172.5,-52 270.5,-52 270.5,-88"/>
<text text-anchor="middle" x="221.5" y="-67.2" font-family="Courier,monospace" font-size="11.00">DiretorioXML</text>
</g>
</g>
</svg>
